<svg width="202.441" height="38.285" viewBox="0 0 202.441 38.285" xmlns="http://www.w3.org/2000/svg"><g id="svgGroup" stroke-linecap="round" fill-rule="evenodd" font-size="9pt" stroke="#fff" stroke-width="0.1mm" fill="#fff" style="stroke:#fff;stroke-width:0.1mm;fill:#fff"><path d="M 173.291 29.004 L 180.176 0.879 A 1.36 1.36 0 0 1 180.325 0.51 A 1.16 1.16 0 0 1 180.542 0.244 Q 180.811 0 181.177 0 A 0.893 0.893 0 0 1 181.534 0.079 Q 181.663 0.135 181.795 0.231 A 1.971 1.971 0 0 1 181.934 0.342 Q 182.324 0.684 182.666 1.465 L 175.83 29.004 A 6.76 6.76 0 0 1 175.806 29.556 Q 175.782 29.852 175.733 30.184 A 12.958 12.958 0 0 1 175.684 30.493 Q 175.537 31.348 175.293 32.153 Q 175.068 32.895 174.781 33.451 A 5.402 5.402 0 0 1 174.731 33.545 Q 174.541 33.897 174.314 34.082 A 0.9 0.9 0 0 1 173.999 34.253 A 0.621 0.621 0 0 1 173.823 34.278 Q 173.482 34.278 173.096 33.911 Q 172.705 33.54 172.283 32.591 A 12.642 12.642 0 0 1 172.07 32.08 A 88.691 88.691 0 0 1 167.188 21.997 Q 165.039 16.748 163.281 10.889 L 157.031 31.494 A 20.209 20.209 0 0 1 156.798 32.87 Q 156.545 34.087 156.177 34.937 A 9.237 9.237 0 0 1 155.798 35.715 Q 155.592 36.088 155.375 36.382 A 3.817 3.817 0 0 1 154.956 36.865 Q 154.297 37.5 153.613 37.647 Q 152.965 37.785 152.449 37.727 A 2.517 2.517 0 0 1 152.393 37.72 A 2.608 2.608 0 0 1 152.083 37.66 Q 151.932 37.62 151.811 37.564 A 1.04 1.04 0 0 1 151.587 37.427 A 1.403 1.403 0 0 1 151.52 37.369 Q 151.39 37.248 151.39 37.17 A 0.083 0.083 0 0 1 151.416 37.109 A 13.245 13.245 0 0 1 150.268 35.242 A 17.599 17.599 0 0 1 149.487 33.472 A 42.596 42.596 0 0 1 148.537 30.664 A 52.124 52.124 0 0 1 148.022 28.833 A 174.292 174.292 0 0 1 147.047 24.924 A 197.855 197.855 0 0 1 146.729 23.56 A 191.56 191.56 0 0 0 145.386 18.091 Q 144.678 15.381 143.701 12.891 A 26.742 26.742 0 0 0 142.083 9.47 A 23.359 23.359 0 0 0 141.406 8.35 A 1.182 1.182 0 0 1 141.496 8.173 Q 141.601 8.002 141.785 7.801 A 3.934 3.934 0 0 1 141.797 7.788 A 11.482 11.482 0 0 1 142.171 7.403 A 14.327 14.327 0 0 1 142.456 7.129 Q 142.822 6.787 143.188 6.47 A 4.778 4.778 0 0 1 143.442 6.264 Q 143.66 6.1 143.848 6.006 A 2.592 2.592 0 0 1 144.498 6.725 A 2.911 2.911 0 0 1 144.507 6.738 Q 144.709 7.07 144.981 7.748 A 20.646 20.646 0 0 1 145.166 8.228 A 30.916 30.916 0 0 1 145.372 8.8 Q 145.697 9.729 146.118 11.084 A 722.66 722.66 0 0 1 146.422 12.064 Q 146.759 13.153 147.193 14.566 A 2301.302 2301.302 0 0 1 147.607 15.918 A 718.573 718.573 0 0 0 148.368 18.384 Q 148.713 19.493 149.102 20.738 A 1507.163 1507.163 0 0 0 149.927 23.364 Q 151.318 27.783 153.32 33.984 A 0.427 0.427 0 0 0 153.409 33.879 Q 153.616 33.561 154.028 32.422 Q 154.529 31.04 155.238 28.984 A 421.651 421.651 0 0 0 155.273 28.882 A 271.257 271.257 0 0 0 156.036 26.636 A 366.777 366.777 0 0 0 156.86 24.146 A 402.039 402.039 0 0 0 158.545 18.872 A 5214.501 5214.501 0 0 1 159.357 16.272 A 4516.318 4516.318 0 0 1 160.132 13.794 A 860.945 860.945 0 0 0 160.669 12.074 Q 161.09 10.718 161.426 9.619 Q 161.572 8.936 161.646 8.276 A 8.888 8.888 0 0 1 161.744 7.611 A 6.83 6.83 0 0 1 161.865 7.08 A 2.076 2.076 0 0 1 162.152 6.449 A 1.904 1.904 0 0 1 162.378 6.177 Q 162.744 5.811 163.623 5.811 Q 164.272 5.533 164.833 6.398 A 3.281 3.281 0 0 1 164.893 6.494 A 8.138 8.138 0 0 1 165.261 7.19 Q 165.669 8.051 166.089 9.326 Q 166.613 10.921 167.192 12.966 A 134.628 134.628 0 0 1 167.383 13.648 A 137.921 137.921 0 0 0 168.492 17.429 A 159.221 159.221 0 0 0 168.921 18.799 A 83.832 83.832 0 0 0 170.825 24.146 A 28.689 28.689 0 0 0 172.596 27.858 A 25.162 25.162 0 0 0 173.291 29.004 Z M 40.82 8.35 L 41.211 8.35 A 0.154 0.154 0 0 1 41.297 8.381 Q 41.412 8.46 41.553 8.74 A 2.253 2.253 0 0 1 41.652 8.977 Q 41.796 9.374 41.953 10.11 A 20.03 20.03 0 0 1 41.968 10.181 Q 42.188 11.231 42.456 13.355 Q 42.725 15.479 43.115 18.897 A 292.028 292.028 0 0 1 43.317 20.712 Q 43.618 23.503 43.971 27.195 A 803.365 803.365 0 0 1 43.994 27.442 A 60.231 60.231 0 0 0 45.285 22.571 A 52.745 52.745 0 0 0 45.605 20.996 A 40.394 40.394 0 0 1 46.373 17.658 A 32.053 32.053 0 0 1 47.119 15.308 A 14.358 14.358 0 0 1 49.498 11.069 A 13.677 13.677 0 0 1 49.731 10.791 A 8.327 8.327 0 0 1 51.98 8.983 Q 52.966 8.429 54.185 8.035 A 15.084 15.084 0 0 1 54.59 7.91 A 3.708 3.708 0 0 1 56.823 9.192 A 5.553 5.553 0 0 1 57.422 10.034 A 13.262 13.262 0 0 1 58.332 11.939 Q 58.707 12.902 59 14.024 A 23.45 23.45 0 0 1 59.131 14.551 A 35.441 35.441 0 0 1 59.772 18.089 A 43.447 43.447 0 0 1 60.01 20.386 A 103.594 103.594 0 0 1 60.266 24.959 A 90.173 90.173 0 0 1 60.303 26.416 A 370.061 370.061 0 0 1 60.338 28.983 Q 60.35 30.189 60.351 31.263 A 216.981 216.981 0 0 1 60.352 31.567 A 84.464 84.464 0 0 0 60.358 32.622 Q 60.374 33.928 60.434 34.652 A 9.907 9.907 0 0 0 60.449 34.815 A 1.898 1.898 0 0 1 60.01 35.498 A 1.729 1.729 0 0 1 59.556 35.828 A 1.594 1.594 0 0 1 59.351 35.913 A 1.482 1.482 0 0 1 59.047 35.981 Q 58.841 36.004 58.643 35.962 A 0.765 0.765 0 0 1 58.348 35.824 Q 58.17 35.693 58.008 35.449 A 10.868 10.868 0 0 0 58.003 35.161 Q 57.986 34.549 57.91 33.252 A 421.566 421.566 0 0 0 57.83 31.928 Q 57.794 31.343 57.753 30.704 A 745.424 745.424 0 0 0 57.666 29.37 A 2147.967 2147.967 0 0 0 57.513 27.075 A 2586.691 2586.691 0 0 0 57.349 24.634 Q 57.178 22.119 57.056 19.898 A 1330.639 1330.639 0 0 0 56.968 18.31 Q 56.932 17.682 56.899 17.108 A 750.09 750.09 0 0 0 56.836 16.016 A 254.926 254.926 0 0 0 56.796 15.343 Q 56.744 14.497 56.709 14.053 A 18.393 18.393 0 0 0 56.689 13.818 Q 55.664 12.012 54.663 11.768 A 1.831 1.831 0 0 0 54.228 11.715 Q 53.536 11.715 52.845 12.251 A 3.897 3.897 0 0 0 52.661 12.402 A 6.058 6.058 0 0 0 51.921 13.192 Q 51.58 13.622 51.248 14.166 A 14.324 14.324 0 0 0 50.732 15.088 A 31.588 31.588 0 0 0 49.829 17.011 A 41.032 41.032 0 0 0 48.975 19.165 A 75.768 75.768 0 0 0 47.784 22.694 A 84.289 84.289 0 0 0 47.412 23.926 A 87.976 87.976 0 0 0 46.423 27.565 A 77.227 77.227 0 0 0 46.143 28.735 Q 45.605 31.055 45.239 32.935 Q 44.937 34.484 44.818 35.453 A 14.125 14.125 0 0 0 44.775 35.84 A 1.124 1.124 0 0 1 44.605 36.113 Q 44.441 36.31 44.165 36.499 A 3.358 3.358 0 0 1 43.204 36.958 A 3.186 3.186 0 0 1 43.188 36.963 A 2.478 2.478 0 0 1 42.505 37.061 A 2.414 2.414 0 0 1 42.163 37.036 A 0.939 0.939 0 0 1 41.489 36.617 A 1.263 1.263 0 0 1 41.406 36.475 Q 40.869 29.883 40.454 23.267 A 2336.64 2336.64 0 0 0 39.79 13.054 A 2612.161 2612.161 0 0 0 39.551 9.522 A 1.548 1.548 0 0 1 39.618 9.044 Q 39.843 8.35 40.82 8.35 Z M 96.631 8.35 L 97.021 8.35 A 0.154 0.154 0 0 1 97.108 8.381 Q 97.223 8.46 97.363 8.74 A 2.253 2.253 0 0 1 97.462 8.977 Q 97.607 9.374 97.763 10.11 A 20.03 20.03 0 0 1 97.778 10.181 Q 97.998 11.231 98.267 13.355 Q 98.535 15.479 98.926 18.897 A 292.028 292.028 0 0 1 99.127 20.712 Q 99.428 23.503 99.781 27.195 A 803.365 803.365 0 0 1 99.805 27.442 A 60.231 60.231 0 0 0 101.096 22.571 A 52.745 52.745 0 0 0 101.416 20.996 A 40.394 40.394 0 0 1 102.183 17.658 A 32.053 32.053 0 0 1 102.93 15.308 A 14.358 14.358 0 0 1 105.309 11.069 A 13.677 13.677 0 0 1 105.542 10.791 A 8.327 8.327 0 0 1 107.791 8.983 Q 108.776 8.429 109.995 8.035 A 15.084 15.084 0 0 1 110.4 7.91 A 3.708 3.708 0 0 1 112.633 9.192 A 5.553 5.553 0 0 1 113.232 10.034 A 13.262 13.262 0 0 1 114.143 11.939 Q 114.518 12.902 114.811 14.024 A 23.45 23.45 0 0 1 114.941 14.551 A 35.441 35.441 0 0 1 115.582 18.089 A 43.447 43.447 0 0 1 115.82 20.386 A 103.594 103.594 0 0 1 116.077 24.959 A 90.173 90.173 0 0 1 116.113 26.416 A 370.061 370.061 0 0 1 116.148 28.983 Q 116.16 30.189 116.162 31.263 A 216.981 216.981 0 0 1 116.162 31.567 A 84.464 84.464 0 0 0 116.168 32.622 Q 116.185 33.928 116.245 34.652 A 9.907 9.907 0 0 0 116.26 34.815 A 1.898 1.898 0 0 1 115.82 35.498 A 1.729 1.729 0 0 1 115.367 35.828 A 1.594 1.594 0 0 1 115.161 35.913 A 1.482 1.482 0 0 1 114.858 35.981 Q 114.651 36.004 114.453 35.962 A 0.765 0.765 0 0 1 114.158 35.824 Q 113.981 35.693 113.818 35.449 A 10.868 10.868 0 0 0 113.814 35.161 Q 113.797 34.549 113.721 33.252 A 421.566 421.566 0 0 0 113.641 31.928 Q 113.604 31.343 113.563 30.704 A 745.424 745.424 0 0 0 113.477 29.37 A 2147.967 2147.967 0 0 0 113.324 27.075 A 2586.691 2586.691 0 0 0 113.159 24.634 Q 112.988 22.119 112.866 19.898 A 1330.639 1330.639 0 0 0 112.778 18.31 Q 112.743 17.682 112.71 17.108 A 750.09 750.09 0 0 0 112.646 16.016 A 254.926 254.926 0 0 0 112.606 15.343 Q 112.554 14.497 112.52 14.053 A 18.393 18.393 0 0 0 112.5 13.818 Q 111.475 12.012 110.474 11.768 A 1.831 1.831 0 0 0 110.038 11.715 Q 109.347 11.715 108.655 12.251 A 3.897 3.897 0 0 0 108.472 12.402 A 6.058 6.058 0 0 0 107.731 13.192 Q 107.39 13.622 107.058 14.166 A 14.324 14.324 0 0 0 106.543 15.088 A 31.588 31.588 0 0 0 105.64 17.011 A 41.032 41.032 0 0 0 104.785 19.165 A 75.768 75.768 0 0 0 103.595 22.694 A 84.289 84.289 0 0 0 103.223 23.926 A 87.976 87.976 0 0 0 102.234 27.565 A 77.227 77.227 0 0 0 101.953 28.735 Q 101.416 31.055 101.05 32.935 Q 100.748 34.484 100.629 35.453 A 14.125 14.125 0 0 0 100.586 35.84 A 1.124 1.124 0 0 1 100.415 36.113 Q 100.251 36.31 99.976 36.499 A 3.358 3.358 0 0 1 99.015 36.958 A 3.186 3.186 0 0 1 98.999 36.963 A 2.478 2.478 0 0 1 98.315 37.061 A 2.414 2.414 0 0 1 97.974 37.036 A 0.939 0.939 0 0 1 97.3 36.617 A 1.263 1.263 0 0 1 97.217 36.475 Q 96.68 29.883 96.265 23.267 A 2336.64 2336.64 0 0 0 95.601 13.054 A 2612.161 2612.161 0 0 0 95.361 9.522 A 1.548 1.548 0 0 1 95.429 9.044 Q 95.654 8.35 96.631 8.35 Z M 1.123 36.572 L 0 5.274 Q 0 4.981 0.22 4.492 Q 0.439 4.004 0.586 3.955 Q 0.732 3.955 1.001 4.004 A 2.508 2.508 0 0 1 1.337 4.091 A 3.153 3.153 0 0 1 1.563 4.175 A 19.787 19.787 0 0 1 1.988 4.358 A 17.723 17.723 0 0 1 2.124 4.419 A 2.884 2.884 0 0 1 2.248 4.479 Q 2.367 4.54 2.438 4.594 A 0.509 0.509 0 0 1 2.49 4.639 A 45.398 45.398 0 0 1 2.633 6.46 Q 2.688 7.392 2.718 8.428 A 77.88 77.88 0 0 1 2.734 9.131 A 565.719 565.719 0 0 0 2.856 14.258 A 120.05 120.05 0 0 0 3.059 18.656 A 108.623 108.623 0 0 0 3.101 19.263 A 30.664 30.664 0 0 0 3.267 20.969 Q 3.373 21.802 3.52 22.52 A 14.875 14.875 0 0 0 3.711 23.34 A 2264.584 2264.584 0 0 0 5.75 22.485 A 1883.786 1883.786 0 0 0 7.666 21.68 A 16.956 16.956 0 0 0 9.549 20.752 A 13.248 13.248 0 0 0 10.889 19.873 A 7.417 7.417 0 0 0 13.037 17.358 A 6.06 6.06 0 0 0 13.587 15.796 Q 13.795 14.816 13.77 13.623 A 51.886 51.886 0 0 0 13.76 12.611 Q 13.751 12.15 13.733 11.741 A 28.713 28.713 0 0 0 13.721 11.475 A 17.019 17.019 0 0 0 13.525 9.644 A 20.02 20.02 0 0 0 13.322 8.581 A 25.774 25.774 0 0 0 13.11 7.691 Q 12.88 6.788 12.559 5.652 A 127.346 127.346 0 0 0 12.451 5.274 A 3.361 3.361 0 0 1 12.437 5.109 Q 12.41 4.667 12.525 4.41 A 0.575 0.575 0 0 1 12.744 4.15 A 1.591 1.591 0 0 1 13.35 3.93 A 2.093 2.093 0 0 1 13.672 3.906 Q 14.115 3.906 14.415 4.049 A 1.046 1.046 0 0 1 14.648 4.199 A 1.982 1.982 0 0 1 15.02 4.629 A 2.618 2.618 0 0 1 15.21 4.981 A 3.218 3.218 0 0 1 15.479 6.03 A 90.706 90.706 0 0 0 15.527 6.574 A 73.698 73.698 0 0 0 15.576 7.08 A 36.23 36.23 0 0 1 15.628 7.52 Q 15.685 8.023 15.754 8.734 A 169.018 169.018 0 0 1 15.82 9.424 A 408.503 408.503 0 0 1 15.963 10.98 Q 16.047 11.913 16.138 12.964 A 287.996 287.996 0 0 0 16.321 14.996 A 337.894 337.894 0 0 0 16.528 17.139 L 16.943 21.289 A 194.836 194.836 0 0 1 17.115 23.09 Q 17.193 23.942 17.253 24.704 A 116.902 116.902 0 0 1 17.261 24.805 A 110.837 110.837 0 0 0 17.32 25.537 Q 17.38 26.242 17.433 26.739 A 23.641 23.641 0 0 0 17.48 27.149 Q 17.627 29.004 17.871 30.811 A 27.687 27.687 0 0 1 18.115 34.522 L 18.115 35.303 A 3.85 3.85 0 0 1 18.042 36.06 A 1.218 1.218 0 0 1 17.7 36.694 A 1.17 1.17 0 0 1 17.454 36.879 Q 17.214 37.017 16.851 37.108 A 3.802 3.802 0 0 1 16.846 37.109 Q 16.214 36.653 15.961 36.122 A 1.736 1.736 0 0 1 15.82 35.693 A 19.394 19.394 0 0 1 15.671 34.768 A 24.637 24.637 0 0 1 15.576 33.984 Q 15.528 33.45 15.479 32.358 A 95.105 95.105 0 0 1 15.479 32.349 Q 15.43 31.25 15.308 29.907 A 296.961 296.961 0 0 1 15.186 28.528 A 346.429 346.429 0 0 1 15.063 27.075 A 346.429 346.429 0 0 0 14.941 25.623 A 296.961 296.961 0 0 0 14.819 24.243 L 14.6 21.826 L 14.453 20.215 Q 14.048 20.509 13.185 21.012 A 49.788 49.788 0 0 1 12.573 21.362 A 234.068 234.068 0 0 0 11.188 22.15 A 283.201 283.201 0 0 0 9.717 22.998 A 558.674 558.674 0 0 0 8.24 23.859 A 482.348 482.348 0 0 0 6.836 24.683 A 62.755 62.755 0 0 0 6.204 25.06 Q 5.334 25.586 4.932 25.879 A 5.039 5.039 0 0 0 4.11 26.667 A 3.806 3.806 0 0 0 3.467 27.783 A 6.58 6.58 0 0 0 3.088 29.68 A 7.67 7.67 0 0 0 3.076 30.103 A 13.973 13.973 0 0 0 3.214 32.025 A 16.103 16.103 0 0 0 3.32 32.691 A 25.158 25.158 0 0 1 3.662 35.4 A 2.052 2.052 0 0 1 3.279 36.592 A 2.552 2.552 0 0 1 3.223 36.67 A 1.568 1.568 0 0 1 2.846 37.036 A 1.306 1.306 0 0 1 2.1 37.256 A 1.17 1.17 0 0 1 1.799 37.215 Q 1.638 37.172 1.465 37.085 A 0.739 0.739 0 0 1 1.288 36.965 A 0.515 0.515 0 0 1 1.123 36.572 Z M 197.998 13.184 L 200.684 13.33 Q 200.716 15.967 200.684 18.267 A 135.522 135.522 0 0 1 200.635 20.483 Q 200.57 22.616 200.57 24.574 A 110.178 110.178 0 0 0 200.586 26.489 Q 200.635 29.297 201.025 31.934 A 26.603 26.603 0 0 0 201.837 35.565 A 32.069 32.069 0 0 0 202.441 37.402 Q 202.295 37.549 201.855 37.817 A 4.134 4.134 0 0 1 201.675 37.922 Q 201.397 38.073 201.245 38.085 A 0.319 0.319 0 0 1 201.221 38.086 A 2.851 2.851 0 0 1 200.629 38.029 Q 200.288 37.957 200.04 37.792 A 1.337 1.337 0 0 1 199.585 37.28 A 4.771 4.771 0 0 1 199.215 36.296 A 6.483 6.483 0 0 1 199.048 35.376 A 50.032 50.032 0 0 1 198.853 33.179 A 3.65 3.65 0 0 0 198.734 32.449 Q 198.605 31.983 198.348 31.632 A 2.167 2.167 0 0 0 198.193 31.445 A 2.763 2.763 0 0 1 198.039 31.808 Q 197.785 32.313 197.241 33.032 A 16.623 16.623 0 0 1 196.19 34.284 A 20.301 20.301 0 0 1 195.459 35.034 A 16.484 16.484 0 0 1 193.676 36.55 A 14.88 14.88 0 0 1 193.335 36.792 A 6.06 6.06 0 0 1 192.706 37.175 Q 191.996 37.546 191.416 37.549 A 1.834 1.834 0 0 1 191.406 37.549 A 2.868 2.868 0 0 1 189.186 36.525 A 4.328 4.328 0 0 1 188.843 36.084 Q 187.842 34.619 187.305 32.324 Q 186.768 30.029 186.572 27.222 Q 186.377 24.414 186.328 21.729 A 313.94 313.94 0 0 1 186.292 19.165 A 232.432 232.432 0 0 1 186.279 16.846 A 54.507 54.507 0 0 0 186.27 15.814 Q 186.249 14.721 186.182 13.973 A 11.508 11.508 0 0 0 186.133 13.525 A 1.678 1.678 0 0 1 186.245 13.294 Q 186.313 13.179 186.392 13.099 A 0.605 0.605 0 0 1 186.646 12.94 Q 186.963 12.842 187.402 12.842 A 2.703 2.703 0 0 1 187.797 12.869 A 2.114 2.114 0 0 1 188.11 12.94 A 0.663 0.663 0 0 1 188.356 13.083 Q 188.516 13.226 188.654 13.49 A 2.403 2.403 0 0 1 188.672 13.525 A 37.691 37.691 0 0 0 188.673 13.84 Q 188.678 14.38 188.696 15.332 A 57.31 57.31 0 0 0 188.737 16.636 Q 188.768 17.37 188.818 18.189 A 621.895 621.895 0 0 1 188.965 20.651 A 708.759 708.759 0 0 1 189.014 21.509 A 378.693 378.693 0 0 1 189.105 23.2 A 323.886 323.886 0 0 1 189.185 24.805 A 282.952 282.952 0 0 0 189.256 26.244 Q 189.291 26.925 189.326 27.532 A 169.005 169.005 0 0 0 189.331 27.612 Q 189.402 28.811 189.449 29.399 A 24.16 24.16 0 0 0 189.453 29.443 A 9.722 9.722 0 0 1 189.479 29.642 Q 189.52 29.981 189.575 30.567 A 15.179 15.179 0 0 0 189.722 31.675 A 17.766 17.766 0 0 0 189.819 32.202 A 10.209 10.209 0 0 0 190.035 33.086 A 7.893 7.893 0 0 0 190.259 33.74 Q 190.494 34.338 190.859 34.45 A 0.585 0.585 0 0 0 190.967 34.473 A 1.882 1.882 0 0 0 191.729 34.304 Q 191.994 34.188 192.262 33.991 A 3.816 3.816 0 0 0 192.456 33.838 A 8.216 8.216 0 0 0 193.207 33.118 Q 193.579 32.715 193.945 32.227 A 16.836 16.836 0 0 0 195.03 30.582 A 19.259 19.259 0 0 0 195.313 30.078 A 44.166 44.166 0 0 0 196.194 28.366 A 38.286 38.286 0 0 0 196.46 27.808 Q 196.973 26.709 197.241 25.83 Q 197.441 25.178 197.519 24.795 A 3.127 3.127 0 0 0 197.559 24.561 A 22.75 22.75 0 0 0 197.607 24.101 Q 197.681 23.346 197.754 22.192 Q 197.852 20.654 197.9 18.897 Q 197.949 17.139 197.974 15.576 Q 197.992 14.38 197.997 13.613 A 75.656 75.656 0 0 0 197.998 13.184 Z M 67.383 36.377 A 0.004 0.004 0 0 0 67.388 36.381 Q 67.449 36.381 68.199 35.932 A 59.697 59.697 0 0 0 68.433 35.791 A 25.028 25.028 0 0 0 69.275 35.257 Q 70.023 34.763 70.923 34.107 A 61.75 61.75 0 0 0 73.125 32.422 A 71.141 71.141 0 0 0 73.877 31.812 A 26.32 26.32 0 0 0 75.089 30.755 Q 75.814 30.08 76.367 29.443 Q 77.344 28.32 77.417 27.515 A 0.86 0.86 0 0 0 77.421 27.437 Q 77.421 26.763 76.304 26.51 A 4.526 4.526 0 0 0 76.074 26.465 A 12.257 12.257 0 0 0 75.304 26.382 Q 74.045 26.287 73.12 26.514 A 18.081 18.081 0 0 0 71.844 26.874 A 14.26 14.26 0 0 0 70.947 27.197 L 69.116 27.93 A 3.779 3.779 0 0 1 67.827 28.193 Q 67.539 28.203 67.236 28.174 Q 65.088 28.174 64.282 26.831 Q 63.667 25.806 63.522 24.225 A 11.274 11.274 0 0 1 63.477 23.193 A 9.74 9.74 0 0 1 64.502 18.823 Q 65.527 16.748 67.139 15.234 A 12.702 12.702 0 0 1 70.85 12.817 A 10.774 10.774 0 0 1 75.146 11.914 A 8.873 8.873 0 0 1 75.82 11.938 Q 76.139 11.963 76.416 12.011 A 4.687 4.687 0 0 1 76.66 12.061 A 0.731 0.731 0 0 1 77.202 12.558 Q 77.259 12.711 77.281 12.91 A 2.477 2.477 0 0 1 77.295 13.184 A 1.646 1.646 0 0 1 77.049 14.039 A 2.452 2.452 0 0 1 76.709 14.478 A 2.195 2.195 0 0 1 76.239 14.855 A 1.649 1.649 0 0 1 75.391 15.088 A 0.146 0.146 0 0 1 75.365 15.085 Q 75.318 15.076 75.217 15.041 A 3.99 3.99 0 0 1 75.146 15.015 A 1.44 1.44 0 0 1 74.908 14.898 A 1.835 1.835 0 0 1 74.756 14.795 A 1.763 1.763 0 0 0 74.542 14.657 A 1.39 1.39 0 0 0 74.365 14.575 Q 74.171 14.502 74.121 14.502 A 3.819 3.819 0 0 0 73.17 14.356 Q 72.332 14.338 71.523 14.713 A 4.597 4.597 0 0 0 71.094 14.942 A 9.134 9.134 0 0 0 68.961 16.73 A 10.828 10.828 0 0 0 68.481 17.31 A 13.176 13.176 0 0 0 66.65 20.532 A 11.565 11.565 0 0 0 66.234 21.781 Q 66.059 22.436 65.998 23.029 A 5.981 5.981 0 0 0 65.967 23.633 A 2.13 2.13 0 0 0 65.993 23.976 Q 66.042 24.279 66.187 24.487 A 1.27 1.27 0 0 0 66.772 24.951 A 2.346 2.346 0 0 0 67.242 25.082 A 3.024 3.024 0 0 0 67.603 25.122 A 18.121 18.121 0 0 0 68.555 25.147 A 6.946 6.946 0 0 0 70.345 24.906 A 7.821 7.821 0 0 0 70.532 24.854 Q 71.533 24.561 72.485 24.17 Q 73.438 23.779 74.438 23.486 Q 75.439 23.193 76.514 23.193 Q 76.937 23.193 77.434 23.395 A 3.839 3.839 0 0 1 77.588 23.462 A 3.39 3.39 0 0 1 78.468 24.052 A 4.014 4.014 0 0 1 78.662 24.243 A 5.074 5.074 0 0 1 79.492 25.415 A 3.575 3.575 0 0 1 79.882 26.843 A 4.146 4.146 0 0 1 79.883 26.856 A 1.41 1.41 0 0 1 79.987 27.27 Q 80.034 27.729 79.835 28.332 A 4.869 4.869 0 0 1 79.712 28.662 A 9.391 9.391 0 0 1 79.217 29.673 Q 78.936 30.174 78.572 30.701 A 16.281 16.281 0 0 1 78.32 31.055 A 18.811 18.811 0 0 1 77.153 32.491 A 23.97 23.97 0 0 1 76.074 33.618 Q 74.756 34.912 73.438 35.962 A 17.967 17.967 0 0 1 71.99 37.006 A 14.04 14.04 0 0 1 70.85 37.671 A 7.401 7.401 0 0 1 70.144 37.995 Q 69.404 38.285 68.824 38.285 A 2.219 2.219 0 0 1 68.701 38.281 A 2.469 2.469 0 0 1 68.312 38.253 Q 68.117 38.222 67.97 38.156 A 0.709 0.709 0 0 1 67.554 37.695 A 4.175 4.175 0 0 1 67.416 36.99 A 5.515 5.515 0 0 1 67.383 36.377 Z M 34.912 35.84 Q 34.668 34.57 34.497 32.788 A 340.529 340.529 0 0 0 34.131 29.175 A 63.255 63.255 0 0 0 33.858 26.972 A 52.809 52.809 0 0 0 33.667 25.733 A 12.252 12.252 0 0 0 33.428 24.606 Q 33.284 24.063 33.098 23.609 A 5.935 5.935 0 0 0 32.861 23.096 Q 30.371 28.174 28.467 31.079 Q 26.816 33.597 25.515 34.868 A 8.829 8.829 0 0 1 25.122 35.23 Q 23.682 36.475 22.705 36.426 A 2.056 2.056 0 0 1 21.205 35.684 A 2.785 2.785 0 0 1 21.094 35.547 A 4.386 4.386 0 0 1 20.53 34.551 Q 20.318 34.04 20.19 33.423 A 23.111 23.111 0 0 1 19.942 32.021 A 18.196 18.196 0 0 1 19.824 31.006 Q 19.824 30.109 20.165 28.598 A 27.544 27.544 0 0 1 20.313 27.979 A 39.171 39.171 0 0 1 20.886 25.934 A 53.009 53.009 0 0 1 21.631 23.706 A 48.557 48.557 0 0 1 23.258 19.74 A 54.351 54.351 0 0 1 23.608 18.994 A 36.332 36.332 0 0 1 25.188 16.043 A 30.414 30.414 0 0 1 26.074 14.649 Q 27.393 12.695 28.809 11.426 Q 29.86 10.483 30.912 10.24 A 3.232 3.232 0 0 1 31.641 10.156 A 5.81 5.81 0 0 1 32.133 10.097 Q 33.862 9.965 34.741 11.06 A 2.561 2.561 0 0 1 35.196 11.963 Q 35.551 13.187 35.107 15.234 A 65.462 65.462 0 0 0 35.145 17.521 Q 35.185 18.644 35.265 19.625 A 32.548 32.548 0 0 0 35.376 20.752 A 136.636 136.636 0 0 0 35.806 24.085 A 120.263 120.263 0 0 0 35.962 25.147 A 128.253 128.253 0 0 1 36.411 28.406 A 145.438 145.438 0 0 1 36.548 29.541 A 35.149 35.149 0 0 1 36.712 31.393 Q 36.777 32.425 36.802 33.599 A 69.767 69.767 0 0 1 36.816 35.059 A 4.762 4.762 0 0 1 36.799 35.474 Q 36.771 35.8 36.694 36.06 A 0.416 0.416 0 0 1 36.494 36.298 Q 36.215 36.465 35.574 36.474 A 5.302 5.302 0 0 1 35.498 36.475 Q 35.382 36.475 35.22 36.322 A 1.579 1.579 0 0 1 35.132 36.231 A 1.725 1.725 0 0 1 35.041 36.121 Q 34.912 35.952 34.912 35.84 Z M 81.451 26.583 A 29.403 29.403 0 0 0 81.787 30.42 Q 81.787 30.969 81.801 31.738 A 138.694 138.694 0 0 0 81.812 32.275 Q 81.836 33.399 82.104 34.497 A 5.802 5.802 0 0 0 82.354 35.281 A 4.44 4.44 0 0 0 82.959 36.353 A 1.86 1.86 0 0 0 83.96 37.02 A 2.647 2.647 0 0 0 84.668 37.109 Q 86.768 36.817 88.306 35.596 A 9.704 9.704 0 0 0 90.82 32.568 A 15.39 15.39 0 0 0 91.285 31.635 A 17.373 17.373 0 0 0 92.334 28.589 Q 92.871 26.416 93.018 24.17 Q 93.164 21.924 92.993 19.751 Q 92.908 18.665 92.767 17.694 A 22.944 22.944 0 0 0 92.432 15.869 A 59.93 59.93 0 0 0 92.201 15.35 Q 92.078 15.075 91.938 14.769 A 119.786 119.786 0 0 0 91.577 13.989 Q 91.064 12.891 90.356 11.914 A 9.09 9.09 0 0 0 90.085 11.558 A 7.94 7.94 0 0 0 88.77 10.254 A 3.105 3.105 0 0 0 86.816 9.57 Q 86.328 9.57 85.791 9.766 A 5.032 5.032 0 0 0 84.766 10.278 A 2.93 2.93 0 0 0 84.72 10.308 A 2.542 2.542 0 0 0 83.984 11.06 Q 83.691 11.524 83.691 12.061 A 185.325 185.325 0 0 0 83.051 14.703 A 147.754 147.754 0 0 0 82.495 17.163 A 56.068 56.068 0 0 0 82.254 18.337 A 48.953 48.953 0 0 0 81.714 21.729 A 35.6 35.6 0 0 0 81.445 26.05 A 26.69 26.69 0 0 0 81.451 26.583 Z M 84.912 33.984 L 85.205 33.984 A 2.816 2.816 0 0 0 87.207 33.203 A 5.838 5.838 0 0 0 88.064 32.178 A 7.819 7.819 0 0 0 88.623 31.177 A 14.284 14.284 0 0 0 89.279 29.506 A 17.728 17.728 0 0 0 89.6 28.394 A 30.219 30.219 0 0 0 90.21 25.366 A 34.217 34.217 0 0 0 90.419 23.667 A 27.309 27.309 0 0 0 90.503 22.583 A 65.241 65.241 0 0 0 90.535 21.968 Q 90.563 21.367 90.572 20.902 A 20.793 20.793 0 0 0 90.576 20.508 L 90.576 19.531 A 19.822 19.822 0 0 0 90.565 18.899 Q 90.553 18.519 90.527 18.091 A 20.269 20.269 0 0 0 90.386 16.644 A 22.427 22.427 0 0 0 90.356 16.431 A 9.237 9.237 0 0 0 90.168 15.468 A 7.465 7.465 0 0 0 89.99 14.868 A 4.165 4.165 0 0 0 89.753 14.309 Q 89.578 13.971 89.355 13.721 A 1.286 1.286 0 0 0 88.428 13.284 A 1.755 1.755 0 0 0 88.33 13.281 A 3.16 3.16 0 0 0 87.908 13.177 Q 87.102 13.039 86.499 13.428 A 2.63 2.63 0 0 0 85.839 14.049 Q 85.519 14.467 85.278 15.064 A 9.49 9.49 0 0 0 84.92 16.144 Q 84.769 16.705 84.654 17.352 A 18.006 18.006 0 0 0 84.57 17.871 A 26.579 26.579 0 0 0 84.375 19.617 A 34.657 34.657 0 0 0 84.277 21.533 Q 84.245 22.868 84.245 24.311 A 135.307 135.307 0 0 0 84.253 25.781 A 413.304 413.304 0 0 1 84.277 30.274 Q 84.277 30.762 84.302 31.201 A 7.217 7.217 0 0 0 84.399 32.056 A 10.158 10.158 0 0 0 84.51 32.594 A 12.324 12.324 0 0 0 84.595 32.935 A 13.869 13.869 0 0 0 84.716 33.364 Q 84.781 33.582 84.859 33.822 A 23.55 23.55 0 0 0 84.912 33.984 Z M 31.026 13.736 A 2.228 2.228 0 0 0 30.811 13.867 Q 29.883 14.502 28.857 15.967 A 25.914 25.914 0 0 0 27.951 17.361 Q 27.509 18.087 27.059 18.917 A 44.61 44.61 0 0 0 26.758 19.483 A 69.341 69.341 0 0 0 24.756 23.633 A 70.932 70.932 0 0 0 23.889 25.678 A 57.705 57.705 0 0 0 23.145 27.612 Q 22.476 29.451 22.228 30.659 A 10.453 10.453 0 0 0 22.217 30.713 A 8.898 8.898 0 0 0 22.236 31.318 Q 22.299 32.237 22.571 32.554 A 0.482 0.482 0 0 0 22.754 32.691 Q 23.229 32.885 23.896 32.295 A 3.968 3.968 0 0 0 24.072 32.129 A 9.661 9.661 0 0 0 24.582 31.574 Q 25.147 30.912 25.81 29.947 A 30.354 30.354 0 0 0 25.854 29.883 Q 26.855 28.418 27.808 26.758 A 187.273 187.273 0 0 0 29.181 24.323 A 168.004 168.004 0 0 0 29.614 23.535 A 136.013 136.013 0 0 0 30.019 22.791 Q 30.51 21.878 30.85 21.209 A 40.14 40.14 0 0 0 30.957 20.996 Q 31.396 19.971 31.641 19.092 A 29.307 29.307 0 0 0 31.954 17.866 A 25.119 25.119 0 0 0 32.056 17.407 A 9.165 9.165 0 0 0 32.251 15.772 A 55.119 55.119 0 0 0 32.269 14.917 A 65.079 65.079 0 0 0 32.275 14.014 Q 31.802 13.325 31.026 13.736 Z" vector-effect="non-scaling-stroke"/></g></svg>