<svg width="127.46" height="45.738" viewBox="0 0 127.46 45.738" xmlns="http://www.w3.org/2000/svg"><g id="svgGroup" stroke-linecap="round" fill-rule="evenodd" font-size="9pt" stroke="#fff" stroke-width="0.1mm" fill="#fff" style="stroke:#fff;stroke-width:0.1mm;fill:#fff"><path d="M 83.984 7.798 L 83.838 7.798 Q 83.789 7.798 83.74 7.749 A 35.776 35.776 0 0 0 83.245 6.55 Q 82.479 4.793 81.893 4.107 A 2.443 2.443 0 0 0 81.763 3.965 Q 81.007 3.209 80.466 3.849 A 1.473 1.473 0 0 0 80.396 3.941 Q 79.834 4.722 79.468 6.724 A 43.181 43.181 0 0 0 79.171 8.592 Q 79.039 9.55 78.929 10.615 A 73.555 73.555 0 0 0 78.857 11.338 A 196.728 196.728 0 0 0 78.625 14.024 A 229.993 229.993 0 0 0 78.418 16.856 A 546.261 546.261 0 0 1 78.223 19.657 A 434.141 434.141 0 0 1 78.027 22.251 A 22.041 22.041 0 0 0 78.715 22.068 Q 79.046 21.974 79.329 21.88 A 10.397 10.397 0 0 0 79.663 21.763 A 13.302 13.302 0 0 0 80.366 21.48 A 10.497 10.497 0 0 0 80.859 21.25 A 14.574 14.574 0 0 0 81.433 20.948 A 11.568 11.568 0 0 0 81.836 20.713 A 5.184 5.184 0 0 1 82.518 20.365 A 6.088 6.088 0 0 1 82.813 20.249 Q 83.838 19.761 85.083 19.297 Q 86.328 18.833 87.5 18.833 Q 87.5 19.973 87.168 20.796 A 3.469 3.469 0 0 1 86.987 21.177 A 4.669 4.669 0 0 1 86.007 22.418 A 4.39 4.39 0 0 1 85.669 22.691 A 5.375 5.375 0 0 1 83.965 23.51 A 6.124 6.124 0 0 1 83.838 23.545 Q 82.813 23.814 81.763 24.009 A 93.752 93.752 0 0 0 80.743 24.204 A 78.442 78.442 0 0 0 79.785 24.4 Q 78.939 24.578 78.296 24.837 A 6.149 6.149 0 0 0 78.174 24.888 Q 78.32 28.062 78.589 30.454 A 875.01 875.01 0 0 0 78.815 32.445 Q 78.919 33.355 79.014 34.17 A 505.302 505.302 0 0 0 79.077 34.702 A 102.316 102.316 0 0 1 79.272 36.478 A 76.814 76.814 0 0 1 79.419 38.096 A 17.603 17.603 0 0 1 79.474 39.489 A 17.208 17.208 0 0 1 79.395 41.148 A 12.651 12.651 0 0 0 79.396 41.335 Q 79.401 41.642 79.419 42.1 A 7.597 7.597 0 0 1 79.425 42.403 A 7.19 7.19 0 0 1 79.37 43.296 A 2.471 2.471 0 0 1 79.243 43.835 A 1.954 1.954 0 0 1 79.004 44.297 A 0.941 0.941 0 0 1 78.431 44.674 A 1.532 1.532 0 0 1 78.076 44.712 Q 77.699 44.712 77.444 44.601 A 0.88 0.88 0 0 1 77.197 44.443 A 0.795 0.795 0 0 1 77.037 44.228 Q 76.919 44.006 76.851 43.64 A 4.462 4.462 0 0 1 76.807 43.345 A 790.28 790.28 0 0 1 76.604 40.547 Q 76.527 39.451 76.462 38.472 A 388.369 388.369 0 0 1 76.343 36.631 A 720.592 720.592 0 0 1 76.262 35.307 Q 76.147 33.402 76.074 31.992 Q 75.999 30.553 75.982 29.586 A 30.383 30.383 0 0 1 75.977 29.038 L 75.977 26.792 A 1.223 1.223 0 0 0 75.975 26.736 Q 75.969 26.597 75.928 26.597 Q 75.771 26.597 75.49 26.706 A 3.881 3.881 0 0 0 75.342 26.768 A 11.598 11.598 0 0 0 74.749 27.048 A 13.401 13.401 0 0 0 74.536 27.158 A 40.093 40.093 0 0 1 73.927 27.474 A 35.918 35.918 0 0 1 73.73 27.573 Q 73.34 27.769 73.047 27.769 Q 72.559 27.769 72.192 27.573 A 0.638 0.638 0 0 1 71.887 27.204 Q 71.845 27.084 71.832 26.935 A 1.651 1.651 0 0 1 71.826 26.792 A 1.079 1.079 0 0 1 71.988 26.233 Q 72.079 26.08 72.221 25.932 A 2.181 2.181 0 0 1 72.29 25.864 A 8.104 8.104 0 0 1 72.831 25.397 A 10.765 10.765 0 0 1 73.389 24.985 A 28.152 28.152 0 0 1 74.658 24.155 A 5.071 5.071 0 0 0 75.046 23.893 Q 75.391 23.634 75.586 23.374 Q 75.488 22.593 75.439 20.444 A 73.879 73.879 0 0 1 75.425 19.561 Q 75.405 17.744 75.464 15.537 A 86.862 86.862 0 0 1 75.742 10.579 A 95.615 95.615 0 0 1 75.806 9.849 A 42.869 42.869 0 0 1 76.146 7.082 A 31.308 31.308 0 0 1 76.636 4.6 A 15.839 15.839 0 0 1 77.065 3.123 Q 77.516 1.827 78.125 0.962 A 2.773 2.773 0 0 1 78.576 0.455 Q 79.276 -0.149 80.214 0.049 A 2.772 2.772 0 0 1 80.518 0.132 A 3.057 3.057 0 0 1 82.373 0.742 A 5.723 5.723 0 0 1 83.789 2.256 A 7.535 7.535 0 0 1 84.692 4.234 A 8.56 8.56 0 0 1 84.909 5.136 Q 84.994 5.605 85.007 6.031 A 5.014 5.014 0 0 1 85.01 6.187 A 2.494 2.494 0 0 1 84.948 6.726 Q 84.894 6.969 84.793 7.228 A 4.004 4.004 0 0 1 84.79 7.236 Q 84.591 7.746 84.089 7.793 A 1.124 1.124 0 0 1 83.984 7.798 Z M 0 11.753 L 0 11.607 A 0.146 0.146 0 0 1 0.004 11.576 Q 0.013 11.531 0.049 11.46 A 3.497 3.497 0 0 0 0.282 11.163 Q 0.597 10.719 1.001 9.946 Q 1.563 8.872 2.197 7.822 A 30.746 30.746 0 0 1 2.82 6.834 A 22.506 22.506 0 0 1 3.418 5.967 A 4.341 4.341 0 0 1 3.667 5.653 Q 3.933 5.351 4.165 5.234 A 0.62 0.62 0 0 1 4.443 5.161 Q 4.737 5.161 4.933 5.26 A 0.651 0.651 0 0 1 5.103 5.381 A 1.954 1.954 0 0 1 5.468 5.891 A 2.033 2.033 0 0 1 5.469 5.894 A 23.283 23.283 0 0 1 5.621 6.205 A 31.886 31.886 0 0 1 5.786 6.553 A 1.227 1.227 0 0 0 6.299 7.114 A 17.837 17.837 0 0 1 8.766 5.89 A 20.528 20.528 0 0 1 9.521 5.601 Q 11.279 4.966 13.062 4.722 A 15.189 15.189 0 0 1 15.124 4.578 A 13.901 13.901 0 0 1 16.528 4.649 A 9.685 9.685 0 0 1 18.51 5.053 A 8.267 8.267 0 0 1 19.58 5.479 Q 20.947 6.138 21.924 7.359 A 5.782 5.782 0 0 1 22.869 9.107 A 7.832 7.832 0 0 1 23.193 10.435 Q 23.145 12.827 21.802 14.951 Q 20.459 17.075 18.481 18.809 A 27.644 27.644 0 0 1 14.209 21.885 Q 11.914 23.228 9.985 24.204 A 204.626 204.626 0 0 1 9.064 24.668 Q 7.745 25.327 6.812 25.767 A 24.191 24.191 0 0 0 6.541 25.896 Q 5.657 26.325 5.657 26.434 A 0.023 0.023 0 0 0 5.664 26.45 L 5.664 43.98 A 0.686 0.686 0 0 1 5.632 44.195 Q 5.56 44.415 5.322 44.517 Q 5.005 44.653 4.73 44.662 A 1.194 1.194 0 0 1 4.688 44.663 A 0.798 0.798 0 0 1 4.119 44.422 Q 4.004 44.311 3.903 44.15 A 2.12 2.12 0 0 1 3.809 43.98 A 155.714 155.714 0 0 1 2.555 28.551 A 169.763 169.763 0 0 1 2.539 28.037 A 272.706 272.706 0 0 1 2.417 19.95 A 245.286 245.286 0 0 1 2.539 12.144 A 92.053 92.053 0 0 0 2.173 12.348 Q 1.95 12.473 1.758 12.583 A 1.432 1.432 0 0 1 1.327 12.741 Q 1.147 12.777 0.941 12.778 A 2.434 2.434 0 0 1 0.928 12.778 A 0.804 0.804 0 0 1 0.481 12.64 A 1.179 1.179 0 0 1 0.293 12.485 A 0.988 0.988 0 0 1 0 11.781 A 1.297 1.297 0 0 1 0 11.753 Z M 61.182 45.005 L 59.961 23.765 A 9.804 9.804 0 0 0 59.297 24.128 A 8.449 8.449 0 0 0 59.058 24.277 A 15.849 15.849 0 0 1 58.461 24.646 A 13.669 13.669 0 0 1 58.252 24.766 A 3.339 3.339 0 0 1 57.739 25.002 A 2.855 2.855 0 0 1 57.471 25.083 A 1.655 1.655 0 0 1 57.068 25.132 Q 56.899 25.132 56.723 25.1 A 2.189 2.189 0 0 1 56.641 25.083 A 0.45 0.45 0 0 1 56.328 24.955 Q 56.232 24.866 56.152 24.717 A 3.531 3.531 0 0 1 55.937 24.221 A 4.405 4.405 0 0 1 55.835 23.887 A 6.186 6.186 0 0 1 55.664 22.959 A 5.097 5.097 0 0 1 55.649 22.793 Q 55.624 22.449 55.664 22.251 L 60.352 19.566 L 60.645 7.066 A 0.875 0.875 0 0 1 60.708 6.839 Q 60.881 6.456 61.426 6.553 A 16.759 16.759 0 0 1 62.479 6.777 A 19.112 19.112 0 0 1 62.842 6.87 Q 62.939 6.87 63.159 6.943 A 5.642 5.642 0 0 1 63.261 6.979 Q 63.364 7.015 63.43 7.044 A 1.009 1.009 0 0 1 63.477 7.066 Q 63.379 8.384 63.257 9.922 Q 63.135 11.46 63.037 12.998 A 64.326 64.326 0 0 0 62.915 16.001 A 24.761 24.761 0 0 0 62.912 16.414 Q 62.912 17.024 62.943 17.58 A 15.658 15.658 0 0 0 63.037 18.638 L 70.361 16.587 A 0.213 0.213 0 0 1 70.404 16.581 Q 70.555 16.575 70.657 16.804 A 1.027 1.027 0 0 1 70.679 16.856 A 6.336 6.336 0 0 1 70.77 17.111 Q 70.847 17.338 70.923 17.612 Q 71.045 18.052 71.094 18.491 L 71.143 18.931 L 62.842 22.446 A 10.45 10.45 0 0 0 62.844 22.654 Q 62.855 23.154 62.906 24.338 A 265.815 265.815 0 0 0 62.915 24.546 A 2683.472 2683.472 0 0 1 62.973 25.877 Q 63.025 27.058 63.086 28.477 A 785.307 785.307 0 0 1 63.184 30.833 A 968.615 968.615 0 0 1 63.281 33.36 A 897.475 897.475 0 0 0 63.379 35.88 A 715.986 715.986 0 0 0 63.477 38.218 A 358.55 358.55 0 0 1 63.543 39.824 Q 63.568 40.46 63.588 41.041 A 203.222 203.222 0 0 1 63.623 42.149 A 359.017 359.017 0 0 1 63.64 42.737 Q 63.669 43.822 63.672 44.211 A 10.26 10.26 0 0 1 63.672 44.273 Q 63.574 45.737 62.817 45.737 Q 62.061 45.737 61.182 45.005 Z M 42.285 43.491 L 38.818 21.079 L 38.818 20.689 A 1.009 1.009 0 0 1 38.851 20.425 A 0.649 0.649 0 0 1 39.185 20.005 A 1.64 1.64 0 0 1 39.711 19.834 A 2.153 2.153 0 0 1 40.039 19.81 A 3.7 3.7 0 0 1 40.531 19.841 A 3.139 3.139 0 0 1 40.771 19.883 Q 41.113 19.956 41.309 20.444 A 14.025 14.025 0 0 1 41.4 20.957 Q 41.487 21.493 41.573 22.226 A 50.421 50.421 0 0 1 41.602 22.471 A 215.721 215.721 0 0 0 41.76 23.832 A 286.701 286.701 0 0 0 41.943 25.327 A 1776.379 1776.379 0 0 0 42.145 26.933 A 2075.005 2075.005 0 0 0 42.358 28.623 A 228.449 228.449 0 0 0 42.578 30.308 A 191.581 191.581 0 0 0 42.798 31.895 A 60.216 60.216 0 0 0 43.016 33.31 Q 43.128 33.979 43.246 34.574 A 36.456 36.456 0 0 0 43.262 34.653 Q 43.506 35.874 43.799 36.509 A 74.515 74.515 0 0 1 43.764 34.795 Q 43.735 31.176 44.092 28.379 A 20.765 20.765 0 0 1 44.535 25.976 Q 44.835 24.774 45.268 23.78 A 10.381 10.381 0 0 1 45.776 22.764 A 7.194 7.194 0 0 1 47.361 20.827 A 6.486 6.486 0 0 1 49.194 19.736 Q 51.022 19.018 53.626 19.249 A 17.103 17.103 0 0 1 54.639 19.37 Q 55.846 19.37 56.09 20.395 A 2.535 2.535 0 0 1 56.152 20.982 A 0.745 0.745 0 0 1 55.799 21.633 Q 55.665 21.723 55.481 21.788 A 2.126 2.126 0 0 1 55.322 21.836 A 8.929 8.929 0 0 1 54.341 22.035 A 11.71 11.71 0 0 1 53.467 22.129 A 70.872 70.872 0 0 0 51.465 22.3 Q 50.488 22.398 50.049 22.788 A 5.221 5.221 0 0 0 47.7 25.502 A 6.765 6.765 0 0 0 47.583 25.816 Q 46.934 27.696 46.634 30.193 A 31.039 31.039 0 0 0 46.582 30.65 A 79.706 79.706 0 0 0 46.332 33.561 A 101.958 101.958 0 0 0 46.167 36.729 A 57.579 57.579 0 0 1 45.636 42.627 A 63.317 63.317 0 0 1 45.508 43.491 A 0.961 0.961 0 0 1 45.458 43.81 Q 45.368 44.067 45.117 44.224 A 1.561 1.561 0 0 1 44.593 44.428 A 2.165 2.165 0 0 1 44.165 44.468 A 2.469 2.469 0 0 1 43.091 44.224 Q 42.578 43.98 42.285 43.491 Z M 103.711 42.124 A 34.419 34.419 0 0 0 103.934 40.302 Q 104.016 39.465 104.076 38.517 A 74.391 74.391 0 0 0 104.175 36.509 Q 104.297 33.14 104.272 29.331 A 261.688 261.688 0 0 0 104.136 22.479 A 287.275 287.275 0 0 0 104.102 21.47 A 270.475 270.475 0 0 0 103.931 17.521 A 230.575 230.575 0 0 0 103.711 13.779 A 185.112 185.112 0 0 0 103.466 10.535 Q 103.337 9.009 103.191 7.647 A 110.725 110.725 0 0 0 103.149 7.261 Q 102.832 4.38 102.49 2.72 A 13.68 13.68 0 0 1 102.802 2.518 Q 102.925 2.44 103.036 2.375 A 6.448 6.448 0 0 1 103.247 2.256 A 1.393 1.393 0 0 1 103.661 2.114 A 1.915 1.915 0 0 1 104.004 2.085 A 1.605 1.605 0 0 1 104.275 2.107 Q 104.449 2.137 104.59 2.207 Q 104.834 2.329 104.98 2.72 A 301.985 301.985 0 0 1 106.323 22.007 A 1113.741 1113.741 0 0 1 106.885 41.343 L 106.885 42.539 A 19.568 19.568 0 0 1 106.884 42.717 Q 106.879 43.293 106.837 43.343 A 0.021 0.021 0 0 1 106.836 43.345 A 3.669 3.669 0 0 1 106.394 43.533 Q 106.014 43.664 105.688 43.664 A 1.591 1.591 0 0 1 105.615 43.662 Q 105.078 43.638 104.639 43.369 A 2.73 2.73 0 0 1 104.275 43.106 A 1.991 1.991 0 0 1 103.955 42.759 Q 103.784 42.519 103.733 42.304 A 0.776 0.776 0 0 1 103.711 42.124 Z M 25.103 34.088 A 29.403 29.403 0 0 0 25.439 37.925 Q 25.439 38.474 25.453 39.243 A 138.694 138.694 0 0 0 25.464 39.78 Q 25.488 40.903 25.757 42.002 A 5.802 5.802 0 0 0 26.006 42.786 A 4.44 4.44 0 0 0 26.611 43.858 A 1.86 1.86 0 0 0 27.612 44.525 A 2.647 2.647 0 0 0 28.32 44.614 Q 30.42 44.321 31.958 43.101 A 9.704 9.704 0 0 0 34.473 40.073 A 15.39 15.39 0 0 0 34.937 39.14 A 17.373 17.373 0 0 0 35.986 36.094 Q 36.523 33.921 36.67 31.675 Q 36.816 29.429 36.646 27.256 Q 36.56 26.17 36.42 25.199 A 22.944 22.944 0 0 0 36.084 23.374 A 59.93 59.93 0 0 0 35.854 22.855 Q 35.73 22.58 35.59 22.274 A 119.786 119.786 0 0 0 35.229 21.494 Q 34.717 20.396 34.009 19.419 A 9.09 9.09 0 0 0 33.737 19.063 A 7.94 7.94 0 0 0 32.422 17.759 A 3.105 3.105 0 0 0 30.469 17.075 Q 29.98 17.075 29.443 17.271 A 5.032 5.032 0 0 0 28.418 17.783 A 2.93 2.93 0 0 0 28.373 17.813 A 2.542 2.542 0 0 0 27.637 18.565 Q 27.344 19.028 27.344 19.566 A 185.325 185.325 0 0 0 26.703 22.208 A 147.754 147.754 0 0 0 26.147 24.668 A 56.068 56.068 0 0 0 25.906 25.842 A 48.953 48.953 0 0 0 25.366 29.234 A 35.6 35.6 0 0 0 25.098 33.555 A 26.69 26.69 0 0 0 25.103 34.088 Z M 88.97 34.088 A 29.403 29.403 0 0 0 89.307 37.925 Q 89.307 38.474 89.32 39.243 A 138.694 138.694 0 0 0 89.331 39.78 Q 89.355 40.903 89.624 42.002 A 5.802 5.802 0 0 0 89.873 42.786 A 4.44 4.44 0 0 0 90.479 43.858 A 1.86 1.86 0 0 0 91.479 44.525 A 2.647 2.647 0 0 0 92.187 44.614 Q 94.287 44.321 95.825 43.101 A 9.704 9.704 0 0 0 98.34 40.073 A 15.39 15.39 0 0 0 98.804 39.14 A 17.373 17.373 0 0 0 99.854 36.094 Q 100.391 33.921 100.537 31.675 Q 100.684 29.429 100.513 27.256 Q 100.427 26.17 100.287 25.199 A 22.944 22.944 0 0 0 99.951 23.374 A 59.93 59.93 0 0 0 99.721 22.855 Q 99.597 22.58 99.457 22.274 A 119.786 119.786 0 0 0 99.097 21.494 Q 98.584 20.396 97.876 19.419 A 9.09 9.09 0 0 0 97.604 19.063 A 7.94 7.94 0 0 0 96.289 17.759 A 3.105 3.105 0 0 0 94.336 17.075 Q 93.848 17.075 93.311 17.271 A 5.032 5.032 0 0 0 92.285 17.783 A 2.93 2.93 0 0 0 92.24 17.813 A 2.542 2.542 0 0 0 91.504 18.565 Q 91.211 19.028 91.211 19.566 A 185.325 185.325 0 0 0 90.57 22.208 A 147.754 147.754 0 0 0 90.015 24.668 A 56.068 56.068 0 0 0 89.774 25.842 A 48.953 48.953 0 0 0 89.233 29.234 A 35.6 35.6 0 0 0 88.965 33.555 A 26.69 26.69 0 0 0 88.97 34.088 Z M 115.826 34.088 A 29.403 29.403 0 0 0 116.162 37.925 Q 116.162 38.474 116.176 39.243 A 138.694 138.694 0 0 0 116.187 39.78 Q 116.211 40.903 116.479 42.002 A 5.802 5.802 0 0 0 116.729 42.786 A 4.44 4.44 0 0 0 117.334 43.858 A 1.86 1.86 0 0 0 118.335 44.525 A 2.647 2.647 0 0 0 119.043 44.614 Q 121.143 44.321 122.681 43.101 A 9.704 9.704 0 0 0 125.195 40.073 A 15.39 15.39 0 0 0 125.66 39.14 A 17.373 17.373 0 0 0 126.709 36.094 Q 127.246 33.921 127.393 31.675 Q 127.539 29.429 127.368 27.256 Q 127.283 26.17 127.142 25.199 A 22.944 22.944 0 0 0 126.807 23.374 A 59.93 59.93 0 0 0 126.576 22.855 Q 126.453 22.58 126.313 22.274 A 119.786 119.786 0 0 0 125.952 21.494 Q 125.439 20.396 124.731 19.419 A 9.09 9.09 0 0 0 124.46 19.063 A 7.94 7.94 0 0 0 123.145 17.759 A 3.105 3.105 0 0 0 121.191 17.075 Q 120.703 17.075 120.166 17.271 A 5.032 5.032 0 0 0 119.141 17.783 A 2.93 2.93 0 0 0 119.095 17.813 A 2.542 2.542 0 0 0 118.359 18.565 Q 118.066 19.028 118.066 19.566 A 185.325 185.325 0 0 0 117.426 22.208 A 147.754 147.754 0 0 0 116.87 24.668 A 56.068 56.068 0 0 0 116.629 25.842 A 48.953 48.953 0 0 0 116.089 29.234 A 35.6 35.6 0 0 0 115.82 33.555 A 26.69 26.69 0 0 0 115.826 34.088 Z M 110.352 43.638 A 178.727 178.727 0 0 0 110.321 40.379 A 208.539 208.539 0 0 0 110.229 36.948 A 10044.444 10044.444 0 0 1 109.985 29.844 A 148.995 148.995 0 0 1 109.898 24.779 A 141.376 141.376 0 0 1 109.912 22.788 A 61.382 61.382 0 0 1 110.107 18.626 A 50.682 50.682 0 0 1 110.352 16.294 A 0.316 0.316 0 0 1 110.407 16.274 Q 110.502 16.248 110.695 16.23 A 5.233 5.233 0 0 1 110.815 16.221 A 21.878 21.878 0 0 1 110.984 16.21 Q 111.218 16.196 111.328 16.196 Q 111.815 16.196 112.166 16.308 A 1.579 1.579 0 0 1 112.427 16.416 Q 112.842 16.636 112.842 17.368 A 774.369 774.369 0 0 1 112.836 20.377 A 989.728 989.728 0 0 1 112.817 23.643 A 34220.042 34220.042 0 0 0 112.769 30.527 A 988.12 988.12 0 0 0 112.744 37.437 A 207.354 207.354 0 0 0 112.769 40.696 A 152.596 152.596 0 0 0 112.842 43.638 A 3.353 3.353 0 0 1 112.847 43.757 Q 112.863 44.443 112.565 44.704 A 0.592 0.592 0 0 1 112.524 44.736 A 1.367 1.367 0 0 1 111.944 44.978 A 1.862 1.862 0 0 1 111.621 45.005 Q 111.035 45.005 110.645 44.736 A 0.649 0.649 0 0 1 110.408 44.426 Q 110.313 44.18 110.337 43.798 A 2.98 2.98 0 0 1 110.352 43.638 Z M 5.499 11.723 A 103.195 103.195 0 0 0 5.664 10.239 A 1.641 1.641 0 0 1 5.745 10.114 Q 6 9.756 6.521 9.397 A 6.702 6.702 0 0 1 7.056 9.068 A 14.04 14.04 0 0 1 9.302 8.067 A 28.612 28.612 0 0 1 10.04 7.821 A 24.16 24.16 0 0 1 11.597 7.383 Q 12.421 7.182 12.901 7.131 A 2.748 2.748 0 0 1 13.184 7.114 Q 14.014 7.114 15.308 7.334 A 10.649 10.649 0 0 1 17.822 8.091 A 8.039 8.039 0 0 1 18.445 8.397 A 6.657 6.657 0 0 1 19.897 9.458 A 3.329 3.329 0 0 1 19.95 9.51 A 2.681 2.681 0 0 1 20.752 11.46 A 11.853 11.853 0 0 1 18.237 15.44 Q 16.553 17.222 14.453 18.687 A 35.117 35.117 0 0 1 10.059 21.299 A 114.677 114.677 0 0 1 8.643 21.995 A 97.159 97.159 0 0 1 5.664 23.374 A 9.198 9.198 0 0 1 5.263 22.065 A 11.599 11.599 0 0 1 5.005 20.298 A 26.963 26.963 0 0 1 4.937 18.377 A 28.688 28.688 0 0 1 4.98 16.807 Q 5.078 15.025 5.298 13.34 A 134.476 134.476 0 0 0 5.499 11.723 Z M 28.564 41.489 L 28.857 41.489 A 2.816 2.816 0 0 0 30.859 40.708 A 5.838 5.838 0 0 0 31.716 39.682 A 7.819 7.819 0 0 0 32.275 38.682 A 14.284 14.284 0 0 0 32.932 37.011 A 17.728 17.728 0 0 0 33.252 35.899 A 30.219 30.219 0 0 0 33.862 32.871 A 34.217 34.217 0 0 0 34.072 31.172 A 27.309 27.309 0 0 0 34.155 30.088 A 65.241 65.241 0 0 0 34.187 29.473 Q 34.216 28.872 34.224 28.407 A 20.793 20.793 0 0 0 34.229 28.013 L 34.229 27.036 A 19.822 19.822 0 0 0 34.218 26.404 Q 34.206 26.024 34.18 25.596 A 20.269 20.269 0 0 0 34.038 24.149 A 22.427 22.427 0 0 0 34.009 23.936 A 9.237 9.237 0 0 0 33.821 22.973 A 7.465 7.465 0 0 0 33.643 22.373 A 4.165 4.165 0 0 0 33.406 21.814 Q 33.231 21.476 33.008 21.226 A 1.286 1.286 0 0 0 32.08 20.789 A 1.755 1.755 0 0 0 31.982 20.786 A 3.16 3.16 0 0 0 31.56 20.682 Q 30.755 20.543 30.151 20.933 A 2.63 2.63 0 0 0 29.492 21.554 Q 29.172 21.972 28.931 22.568 A 9.49 9.49 0 0 0 28.573 23.649 Q 28.421 24.21 28.307 24.857 A 18.006 18.006 0 0 0 28.223 25.376 A 26.579 26.579 0 0 0 28.027 27.122 A 34.657 34.657 0 0 0 27.93 29.038 Q 27.897 30.373 27.897 31.816 A 135.307 135.307 0 0 0 27.905 33.286 A 413.304 413.304 0 0 1 27.93 37.778 Q 27.93 38.267 27.954 38.706 A 7.217 7.217 0 0 0 28.052 39.561 A 10.158 10.158 0 0 0 28.162 40.099 A 12.324 12.324 0 0 0 28.247 40.44 A 13.869 13.869 0 0 0 28.368 40.869 Q 28.433 41.087 28.511 41.327 A 23.55 23.55 0 0 0 28.564 41.489 Z M 92.432 41.489 L 92.725 41.489 A 2.816 2.816 0 0 0 94.727 40.708 A 5.838 5.838 0 0 0 95.583 39.682 A 7.819 7.819 0 0 0 96.143 38.682 A 14.284 14.284 0 0 0 96.799 37.011 A 17.728 17.728 0 0 0 97.119 35.899 A 30.219 30.219 0 0 0 97.729 32.871 A 34.217 34.217 0 0 0 97.939 31.172 A 27.309 27.309 0 0 0 98.022 30.088 A 65.241 65.241 0 0 0 98.055 29.473 Q 98.083 28.872 98.092 28.407 A 20.793 20.793 0 0 0 98.096 28.013 L 98.096 27.036 A 19.822 19.822 0 0 0 98.085 26.404 Q 98.073 26.024 98.047 25.596 A 20.269 20.269 0 0 0 97.905 24.149 A 22.427 22.427 0 0 0 97.876 23.936 A 9.237 9.237 0 0 0 97.688 22.973 A 7.465 7.465 0 0 0 97.51 22.373 A 4.165 4.165 0 0 0 97.273 21.814 Q 97.098 21.476 96.875 21.226 A 1.286 1.286 0 0 0 95.947 20.789 A 1.755 1.755 0 0 0 95.85 20.786 A 3.16 3.16 0 0 0 95.427 20.682 Q 94.622 20.543 94.019 20.933 A 2.63 2.63 0 0 0 93.359 21.554 Q 93.039 21.972 92.798 22.568 A 9.49 9.49 0 0 0 92.44 23.649 Q 92.288 24.21 92.174 24.857 A 18.006 18.006 0 0 0 92.09 25.376 A 26.579 26.579 0 0 0 91.895 27.122 A 34.657 34.657 0 0 0 91.797 29.038 Q 91.764 30.373 91.764 31.816 A 135.307 135.307 0 0 0 91.772 33.286 A 413.304 413.304 0 0 1 91.797 37.778 Q 91.797 38.267 91.821 38.706 A 7.217 7.217 0 0 0 91.919 39.561 A 10.158 10.158 0 0 0 92.03 40.099 A 12.324 12.324 0 0 0 92.114 40.44 A 13.869 13.869 0 0 0 92.235 40.869 Q 92.3 41.087 92.378 41.327 A 23.55 23.55 0 0 0 92.432 41.489 Z M 119.287 41.489 L 119.58 41.489 A 2.816 2.816 0 0 0 121.582 40.708 A 5.838 5.838 0 0 0 122.439 39.682 A 7.819 7.819 0 0 0 122.998 38.682 A 14.284 14.284 0 0 0 123.654 37.011 A 17.728 17.728 0 0 0 123.975 35.899 A 30.219 30.219 0 0 0 124.585 32.871 A 34.217 34.217 0 0 0 124.794 31.172 A 27.309 27.309 0 0 0 124.878 30.088 A 65.241 65.241 0 0 0 124.91 29.473 Q 124.938 28.872 124.947 28.407 A 20.793 20.793 0 0 0 124.951 28.013 L 124.951 27.036 A 19.822 19.822 0 0 0 124.94 26.404 Q 124.928 26.024 124.902 25.596 A 20.269 20.269 0 0 0 124.761 24.149 A 22.427 22.427 0 0 0 124.731 23.936 A 9.237 9.237 0 0 0 124.543 22.973 A 7.465 7.465 0 0 0 124.365 22.373 A 4.165 4.165 0 0 0 124.128 21.814 Q 123.953 21.476 123.73 21.226 A 1.286 1.286 0 0 0 122.803 20.789 A 1.755 1.755 0 0 0 122.705 20.786 A 3.16 3.16 0 0 0 122.283 20.682 Q 121.477 20.543 120.874 20.933 A 2.63 2.63 0 0 0 120.214 21.554 Q 119.894 21.972 119.653 22.568 A 9.49 9.49 0 0 0 119.295 23.649 Q 119.144 24.21 119.029 24.857 A 18.006 18.006 0 0 0 118.945 25.376 A 26.579 26.579 0 0 0 118.75 27.122 A 34.657 34.657 0 0 0 118.652 29.038 Q 118.62 30.373 118.62 31.816 A 135.307 135.307 0 0 0 118.628 33.286 A 413.304 413.304 0 0 1 118.652 37.778 Q 118.652 38.267 118.677 38.706 A 7.217 7.217 0 0 0 118.774 39.561 A 10.158 10.158 0 0 0 118.885 40.099 A 12.324 12.324 0 0 0 118.97 40.44 A 13.869 13.869 0 0 0 119.091 40.869 Q 119.156 41.087 119.234 41.327 A 23.55 23.55 0 0 0 119.287 41.489 Z M 109.305 8.394 A 1.352 1.352 0 0 0 109.277 8.677 A 4.087 4.087 0 0 0 109.299 9.107 Q 109.326 9.367 109.389 9.583 A 1.727 1.727 0 0 0 109.595 10.044 A 1.752 1.752 0 0 0 109.819 10.326 A 1.212 1.212 0 0 0 110.376 10.654 Q 110.84 10.777 111.279 10.557 A 1.384 1.384 0 0 0 111.321 10.535 Q 111.733 10.311 112.012 9.8 Q 112.012 8.97 111.768 8.335 A 0.873 0.873 0 0 0 111.359 7.869 Q 111.191 7.777 110.964 7.735 A 2.304 2.304 0 0 0 110.547 7.7 A 2.283 2.283 0 0 0 110.323 7.711 A 1.859 1.859 0 0 0 109.668 7.896 Q 109.381 8.039 109.305 8.394 Z" vector-effect="non-scaling-stroke"/></g></svg>